{
    "asset" : {
        "generator" : "Khronos glTF Blender I/O v1.7.33",
        "version" : "2.0"
    },
    "scene" : 0,
    "scenes" : [
        {
            "name" : "Scene",
            "nodes" : [
                0
            ]
        }
    ],
    "nodes" : [
        {
            "mesh" : 0,
            "name" : "airplane.001",
            "rotation" : [
                0.7071068286895752,
                0,
                0,
                0.7071067094802856
            ]
        }
    ],
    "materials" : [
        {
            "doubleSided" : true,
            "name" : "wire_224086086.001",
            "pbrMetallicRoughness" : {
                "baseColorFactor" : [
                    0.3678480088710785,
                    0.800000011920929,
                    0.800000011920929,
                    1
                ],
                "roughnessFactor" : 0.16363638639450073
            }
        }
    ],
    "meshes" : [
        {
            "name" : "airplane.001",
            "primitives" : [
                {
                    "attributes" : {
                        "POSITION" : 0,
                        "NORMAL" : 1,
                        "TEXCOORD_0" : 2
                    },
                    "indices" : 3,
                    "material" : 0
                }
            ]
        }
    ],
    "accessors" : [
        {
            "bufferView" : 0,
            "componentType" : 5126,
            "count" : 18520,
            "max" : [
                88.91770935058594,
                71.55242919921875,
                17.777572631835938
            ],
            "min" : [
                -28.618850708007812,
                -71.98159790039062,
                -19.593679428100586
            ],
            "type" : "VEC3"
        },
        {
            "bufferView" : 1,
            "componentType" : 5126,
            "count" : 18520,
            "type" : "VEC3"
        },
        {
            "bufferView" : 2,
            "componentType" : 5126,
            "count" : 18520,
            "type" : "VEC2"
        },
        {
            "bufferView" : 3,
            "componentType" : 5123,
            "count" : 47154,
            "type" : "SCALAR"
        }
    ],
    "bufferViews" : [
        {
            "buffer" : 0,
            "byteLength" : 222240,
            "byteOffset" : 0
        },
        {
            "buffer" : 0,
            "byteLength" : 222240,
            "byteOffset" : 222240
        },
        {
            "buffer" : 0,
            "byteLength" : 148160,
            "byteOffset" : 444480
        },
        {
            "buffer" : 0,
            "byteLength" : 94308,
            "byteOffset" : 592640
        }
    ],
    "buffers" : [
        {
            "byteLength" : 686948,
            "uri" : "data:application/octet-stream;base64,"
        }
    ]
}
